<svg width="200" height="200" viewBox="0 0 200 200" fill="none" xmlns="http://www.w3.org/2000/svg">
<path d="M2.00006 86.56C2.00006 68.7851 2.95509 54.638 5.45337 43.3967C7.94661 32.1782 11.9502 23.9767 17.9635 17.9634C23.9767 11.9501 32.1782 7.94654 43.3968 5.4533C54.6381 2.95502 68.7852 1.99999 86.5601 1.99999H113.44C131.215 1.99999 145.362 2.95502 156.603 5.4533C167.822 7.94654 176.023 11.9501 182.037 17.9634C188.05 23.9767 192.054 32.1782 194.547 43.3967C197.045 54.638 198 68.7851 198 86.56V113.44C198 131.215 197.045 145.362 194.547 156.603C192.054 167.822 188.05 176.023 182.037 182.037C176.023 188.05 167.822 192.053 156.603 194.547C145.362 197.045 131.215 198 113.44 198H86.5601C68.7852 198 54.6381 197.045 43.3968 194.547C32.1782 192.053 23.9767 188.05 17.9635 182.037C11.9502 176.023 7.94661 167.822 5.45337 156.603C2.95509 145.362 2.00006 131.215 2.00006 113.44V86.56Z" fill="#00DDB3" stroke="black" stroke-width="4"/>
<circle cx="66.5" cy="54.5" r="7.5" fill="black"/>
<circle cx="137.5" cy="54.5" r="7.5" fill="black"/>
<path d="M73 72C73 72 84.5 82.3112 103 82C121.5 81.6888 130.5 72 130.5 72" stroke="black" stroke-width="7" stroke-linecap="round"/>
</svg>
