<svg width="200" height="200" viewBox="0 0 200 200" fill="none" xmlns="http://www.w3.org/2000/svg">
<path d="M2.00006 86.56C2.00006 68.7851 2.95509 54.638 5.45337 43.3967C7.94661 32.1782 11.9502 23.9767 17.9635 17.9634C23.9767 11.9501 32.1782 7.94654 43.3968 5.4533C54.6381 2.95502 68.7852 1.99999 86.5601 1.99999H113.44C131.215 1.99999 145.362 2.95502 156.603 5.4533C167.822 7.94654 176.023 11.9501 182.037 17.9634C188.05 23.9767 192.054 32.1782 194.547 43.3967C197.045 54.638 198 68.7851 198 86.56V113.44C198 131.215 197.045 145.362 194.547 156.603C192.054 167.822 188.05 176.023 182.037 182.037C176.023 188.05 167.822 192.053 156.603 194.547C145.362 197.045 131.215 198 113.44 198H86.5601C68.7852 198 54.6381 197.045 43.3968 194.547C32.1782 192.053 23.9767 188.05 17.9635 182.037C11.9502 176.023 7.94661 167.822 5.45337 156.603C2.95509 145.362 2.00006 131.215 2.00006 113.44V86.56Z" fill="#00DDB3" stroke="black" stroke-width="4"/>
<circle cx="66.5" cy="54.5" r="7.5" fill="black"/>
<circle cx="137.5" cy="54.5" r="7.5" fill="black"/>
<path d="M79 81C79 81 90.5 91.3112 109 91C127.5 90.6888 136.5 81 136.5 81" stroke="black" stroke-width="7" stroke-linecap="round"/>
<path d="M34 40.0605L162.831 40.0615" stroke="black" stroke-width="6" stroke-linecap="round"/>
<path d="M60.1527 60C55.9765 52.716 57.1527 38.5 57.1527 38.5L100.153 38C100.153 38 101.829 52.716 97.6527 60C90.3687 72.7047 67.4367 72.7047 60.1527 60Z" fill="black" stroke="black"/>
<path d="M125.153 60C122.305 55.0325 121.946 46.8412 122.006 42.1333C122.027 40.4703 122.038 39.6388 122.614 39.0634C123.19 38.4879 124.057 38.4779 125.792 38.4577L161.541 38.042C163.264 38.022 164.125 38.0119 164.713 38.5676C165.301 39.1233 165.338 39.9493 165.412 41.6012C165.629 46.4314 165.531 54.9804 162.653 60C155.369 72.7047 132.437 72.7047 125.153 60Z" fill="black" stroke="black"/>
<path d="M50.3761 133.191L56.6469 146.639L61.7422 141.971L68.594 141.069L62.4929 127.984C57.5519 127.942 53.5256 129.551 50.6239 133.191" fill="#ED6362"/>
<path d="M50.6239 133.191L44.3531 146.64L39.2578 141.971L32.406 141.069L38.5071 127.985C44.5969 127.524 48.7203 129.17 50.6239 133.191Z" fill="#E95454"/>
<path d="M50.5 133.191C59.566 133.191 66.9151 125.842 66.9151 116.776C66.9151 107.711 59.566 100.361 50.5 100.361C45.092 111.561 44.6611 122.525 50.5 133.191Z" fill="#FFCC5B"/>
<path d="M50.4999 133.191C41.4339 133.191 34.0848 125.842 34.0848 116.776C34.0848 107.711 41.4339 100.361 50.4999 100.361V133.174" fill="#FFC662"/>
<path d="M47.3006 128.339C47.2533 128.339 47.205 128.332 47.1572 128.319C40.7928 126.475 37.1136 119.798 38.9571 113.433C39.0357 113.16 39.3206 113.003 39.5942 113.082C39.8667 113.161 40.0241 113.446 39.9449 113.719C38.2598 119.539 41.6232 125.645 47.4436 127.331C47.7161 127.41 47.8735 127.695 47.7943 127.968C47.729 128.193 47.5233 128.339 47.3006 128.339Z" fill="#EC9922"/>
<path d="M61.5488 120.49C61.5015 120.49 61.4531 120.483 61.4058 120.469C61.1333 120.39 60.9759 120.105 61.0546 119.832C61.8717 117.013 61.541 114.044 60.1249 111.473C58.7083 108.902 56.3758 107.037 53.5564 106.22C53.2839 106.141 53.1265 105.856 53.2052 105.583C53.2844 105.31 53.5693 105.154 53.8423 105.232C56.9255 106.125 59.4765 108.165 61.0253 110.977C62.5746 113.789 62.9356 117.035 62.0429 120.118C61.9776 120.344 61.7724 120.49 61.5488 120.49Z" fill="#EC9922"/>
<path d="M54.6614 123.258C54.5797 123.258 54.4974 123.238 54.4223 123.199L50.5 121.137L46.5781 123.199C46.4048 123.29 46.1955 123.275 46.0366 123.16C45.8782 123.045 45.799 122.85 45.832 122.657L46.5812 118.29L43.4085 115.197C43.2686 115.06 43.2177 114.856 43.2784 114.67C43.3391 114.484 43.5 114.348 43.6939 114.32L48.0785 113.683L50.0392 109.71C50.1256 109.534 50.3046 109.423 50.5005 109.423C50.6964 109.423 50.8753 109.534 50.9617 109.71L52.9224 113.683L57.3071 114.32C57.5009 114.348 57.6613 114.484 57.7225 114.67C57.7827 114.856 57.7328 115.06 57.5924 115.197L54.4193 118.29L55.1685 122.657C55.2014 122.85 55.1222 123.045 54.9643 123.16C54.8743 123.225 54.7679 123.258 54.6614 123.258Z" fill="#EC9922"/>
</svg>
